<svg width="801" height="873" viewBox="0 0 801 873" fill="none" xmlns="http://www.w3.org/2000/svg">
<path class="animate" d="M645.75 95.6667C645.75 116.905 636.518 135.99 621.833 149.144V239.167H861C899.059 239.167 935.558 254.285 962.47 281.197C989.381 308.108 1004.5 344.608 1004.5 382.667V861C1004.5 899.059 989.381 935.558 962.47 962.47C935.558 989.381 899.059 1004.5 861 1004.5H287C248.941 1004.5 212.442 989.381 185.53 962.47C158.619 935.558 143.5 899.059 143.5 861V382.667C143.5 344.608 158.619 308.108 185.53 281.197C212.442 254.285 248.941 239.167 287 239.167H526.167V149.144C517.246 141.165 510.463 131.082 506.435 119.811C502.407 108.541 501.263 96.4422 503.106 84.6165C504.949 72.7908 509.721 61.614 516.987 52.1038C524.253 42.5936 533.783 35.0522 544.709 30.1662C555.635 25.2803 567.609 23.205 579.542 24.1294C591.474 25.0538 602.986 28.9485 613.029 35.4588C623.072 41.9691 631.327 50.8883 637.042 61.4041C642.757 71.9199 645.75 83.6983 645.75 95.6667ZM287 334.833C274.314 334.833 262.147 339.873 253.177 348.843C244.206 357.814 239.167 369.98 239.167 382.667V861C239.167 873.686 244.206 885.853 253.177 894.823C262.147 903.794 274.314 908.833 287 908.833H861C873.686 908.833 885.853 903.794 894.823 894.823C903.794 885.853 908.833 873.686 908.833 861V382.667C908.833 369.98 903.794 357.814 894.823 348.843C885.853 339.873 873.686 334.833 861 334.833H526.167H287ZM95.6667 478.333H0V765.333H95.6667V478.333ZM1052.33 478.333H1148V765.333H1052.33V478.333ZM430.5 693.583C449.529 693.583 467.779 686.024 481.235 672.568C494.691 659.112 502.25 640.863 502.25 621.833C502.25 602.804 494.691 584.554 481.235 571.098C467.779 557.643 449.529 550.083 430.5 550.083C411.471 550.083 393.221 557.643 379.765 571.098C366.309 584.554 358.75 602.804 358.75 621.833C358.75 640.863 366.309 659.112 379.765 672.568C393.221 686.024 411.471 693.583 430.5 693.583ZM717.5 693.583C736.529 693.583 754.779 686.024 768.235 672.568C781.691 659.112 789.25 640.863 789.25 621.833C789.25 602.804 781.691 584.554 768.235 571.098C754.779 557.643 736.529 550.083 717.5 550.083C698.471 550.083 680.221 557.643 666.765 571.098C653.309 584.554 645.75 602.804 645.75 621.833C645.75 640.863 653.309 659.112 666.765 672.568C680.221 686.024 698.471 693.583 717.5 693.583Z" fill="black" fill-opacity="0.25"/>
</svg>
