<svg width="1440" height="1024" viewBox="0 0 1440 1024" fill="none" xmlns="http://www.w3.org/2000/svg">
<g opacity="0.5" filter="url(#filter0_f_494_853)">
<path fill-rule="evenodd" clip-rule="evenodd" d="M747.62 -276.51C831.179 -259.931 879.394 -203.526 936.859 -160.753C979.987 -128.652 1017.88 -94.0505 1044.92 -55.2247C1067.62 -22.6273 1057.45 16.5008 1082.49 48.3659C1107.84 80.622 1155.14 102.091 1190.53 130.069C1249.7 176.842 1349.9 210.794 1363.7 270.679C1375.37 321.326 1305.84 366.732 1253.95 405.271C1203.11 443.033 1130.47 463.392 1066.47 491.451C1000.61 520.323 946.219 582.747 867.787 574.568C774.589 564.85 755.459 463.104 663.445 449.427C576.634 436.523 496.61 528.496 413.867 507.099C339.465 487.858 343.637 413.739 328.04 362.69C315.064 320.219 368.985 269.201 330.399 233.903C266.448 175.402 92.693 183.192 57.4689 115.178C30.3859 62.8835 130.573 12.1854 198.379 -21.0153C264.093 -53.1918 377.241 -28.3676 432.065 -68.2405C495.603 -114.45 440.716 -201.763 507.62 -245.92C565.313 -283.999 668.979 -292.114 747.62 -276.51Z" fill="#2C55FB"/>
<path fill-rule="evenodd" clip-rule="evenodd" d="M501.654 328.631C573.77 343.71 633.007 373.327 703.64 391.467C799.828 416.17 908.4 412.358 991.17 454.352C1114.21 516.775 1268.33 582.689 1287.22 687.548C1305.78 790.626 1207.87 901.441 1081.82 957.663C959.445 1012.25 789.207 931.779 654.413 969.81C493.393 1015.24 418.746 1231.8 255.226 1190.88C86.3124 1148.62 181.343 954.437 122.778 836.787C90.9445 772.837 -10.4902 727.793 -8.96591 660.153C-7.47779 594.118 95.7415 553.308 130.552 491.828C168.41 424.964 114.981 325.167 202.495 286.682C290.175 248.124 402.237 307.844 501.654 328.631Z" fill="#3FF3FE"/>
<path fill-rule="evenodd" clip-rule="evenodd" d="M563.087 202.553C712.973 220.922 855.915 273.919 930.051 360.584C992.033 433.043 888.783 516.734 902.364 599.173C919.691 704.349 1087.27 799.268 1018.09 895.007C940.349 1002.61 744.017 1085.93 563.087 1068.75C387.652 1052.08 320.578 916.291 224.082 819.586C155.636 750.992 122.3 678.92 94.5305 599.173C53.0716 480.113 -88.7159 346.561 25.6545 249.75C140.127 152.852 378.416 179.922 563.087 202.553Z" fill="#9675F8"/>
</g>
<defs>
<filter id="filter0_f_494_853" x="-248" y="-514" width="1843" height="1940" filterUnits="userSpaceOnUse" color-interpolation-filters="sRGB">
<feFlood flood-opacity="0" result="BackgroundImageFix"/>
<feBlend mode="normal" in="SourceGraphic" in2="BackgroundImageFix" result="shape"/>
<feGaussianBlur stdDeviation="115" result="effect1_foregroundBlur_494_853"/>
</filter>
</defs>
</svg>
